<?xml version="1.0" encoding="UTF-8" standalone="no"?>
<!-- Created with Inkscape (http://www.inkscape.org/) -->

<svg
   width="243.46881mm"
   height="152.90785mm"
   viewBox="0 0 243.46882 152.90785"
   version="1.1"
   id="svg5"
   xmlSpace="preserve"
   xmlns="http://www.w3.org/2000/svg"
   xmlnsSvg="http://www.w3.org/2000/svg"><defs
     id="defs2" /><g
     id="layer1"
     transform="translate(-2.1375104,-29.487147)"><path
       style="fill:#46494c;stroke-width:1.65469;fill-opacity:1"
       d="m 204.89866,181.39023 c -9.6863,-1.20124 -12.00767,-2.22605 -13.40234,-5.9146 -2.20311,-5.82609 -2.13095,-10.53047 0.26236,-17.12313 1.90231,-5.23932 2.31864,-5.34757 17.12094,-4.4579 l 15.17122,0.91194 -2.34654,-10.41762 c -4.16057,-18.47009 -5.63937,-30.57006 -7.01225,-57.372344 -1.43865,-28.087462 -0.90221,-48.989818 1.39431,-54.328254 1.7192,-3.996241 8.44137,-4.338924 10.41537,-0.530687 0.88738,1.71198 1.43281,10.209628 1.43803,22.408185 0.0178,42.796436 5.45006,81.02344 14.26463,100.39125 4.32304,9.49862 4.44339,12.48224 0.83056,20.585 -2.62085,5.87833 -3.38663,6.23274 -14.59366,6.75285 -6.50503,0.30175 -17.09948,-0.10152 -23.54281,-0.90528 z m -3.60628,-45.05906 C 198.49745,132.2469 176.25193,113.3923 167.34051,107.55445 150.92735,96.801962 122.97826,89.199263 99.864644,89.199263 c -16.357794,0 -42.140528,5.387847 -55.172888,11.529757 -11.027782,5.1971 -28.234032,16.81028 -30.65905,20.693 -0.865842,1.38634 -3.347967,2.19162 -5.5156742,1.7892 C 5.5681374,122.66399 4.1745405,120.85755 2.9828617,116.03715 -0.15474902,103.34676 5.0362174,95.545262 25.407149,82.335215 64.096241,57.246327 125.22462,55.555247 167.76987,78.39736 c 13.60116,7.302305 39.42756,29.93299 44.37663,38.88569 3.24445,5.86911 3.44958,13.48399 0.50212,18.63028 -2.64662,4.62069 -8.33649,4.83007 -11.356,0.41782 z"
       id="path459" /></g></svg>
