<?xml version="1.0" encoding="UTF-8" standalone="no"?>
<!-- Created with Inkscape (http://www.inkscape.org/) -->

<svg
   width="159.19353mm"
   height="160.248mm"
   viewBox="0 0 159.19353 160.248"
   version="1.1"
   id="svg5"
   xmlSpace="preserve"
   xmlns="http://www.w3.org/2000/svg"
   xmlnsSvg="http://www.w3.org/2000/svg"><defs
     id="defs2" /><g
     id="layer1"
     transform="translate(-27.558352,-84.751415)"><path
       style="fill:#eb5f2a;stroke:none;stroke-width:0.410594"
       d="m 118.35833,84.751415 v 0.406836 c 16.26717,2.150617 32.77884,9.806664 44.33941,21.155479 C 146.3108,95.114183 130.16877,87.192432 109.6562,87.192432 c -17.08849,0 -32.127423,2.780929 -46.411343,12.473475 -11.889177,8.067683 -22.289006,18.872843 -28.304621,31.871663 -9.896266,21.38453 -10.347119,52.48838 1.731102,73.23051 8.871736,15.23561 25.925004,27.84468 42.320225,34.39719 26.788877,10.7067 58.574427,6.52524 81.219857,-11.28889 7.37153,-5.79905 15.12263,-13.32633 18.23302,-22.29463 -3.94538,1.78154 -6.18224,6.73355 -9.13267,9.76407 -6.8233,7.00857 -14.37674,13.72218 -23.6039,17.49396 4.09166,-3.30311 9.11071,-5.43859 13.26038,-8.73111 6.67619,-5.2966 11.98656,-11.94187 16.71348,-18.93375 2.75194,-4.07121 6.7802,-9.91989 5.24904,-15.05294 l -10.77407,17.90079 v -0.81367 c -4.21058,2.97356 -7.5406,7.45242 -11.60283,10.73437 -9.22633,7.45405 -20.19888,12.95204 -31.9078,15.44065 -31.696463,6.73721 -70.733791,-10.76732 -82.368534,-41.63479 -5.233294,-13.88492 -2.930255,-26.92808 -1.752029,-41.09046 h 0.414387 c 0,15.568 -3.057554,30.33737 4.250782,45.15882 3.128622,6.3442 8.112869,11.73152 13.153472,16.68028 24.469967,24.02408 62.507382,29.09855 91.165142,8.95039 v -0.40683 c -14.05394,6.52606 -27.01099,12.8906 -43.09625,11.83486 C 95.280702,232.0139 83.564738,228.28118 72.775758,220.69165 62.738476,213.63101 52.231694,204.79046 47.440552,193.37667 37.003635,168.51206 44.300741,137.30285 64.488018,119.40165 84.577915,101.5865 120.99839,97.149747 143.22155,114.31579 c 5.4438,4.20506 9.50686,11.33324 12.846,17.22178 -2.7996,0 -6.07658,0.4166 -8.70213,-0.74003 -5.59713,-2.46502 -9.56695,-8.53176 -15.33232,-11.35521 -13.94702,-6.82955 -32.744033,-6.72581 -46.825732,-0.39097 -22.315154,10.03828 -30.946835,35.68564 -25.224979,58.05186 2.230645,8.72013 8.384292,20.24946 17.766013,23.18966 -1.696086,-3.34256 -4.48491,-6.13346 -6.442474,-9.35723 -5.24614,-8.63916 -9.996672,-20.27712 -8.061071,-30.51271 l 1.243161,0.81367 c 2.086853,-8.60133 2.877089,-16.37637 8.08842,-24.00333 11.086924,-16.22585 35.496392,-22.9541 53.655242,-14.44594 6.90493,3.23516 12.49377,10.4386 17.81864,15.66645 -2.69476,-0.0802 -3.88736,-2.65054 -5.50679,-4.4752 -2.40634,-2.71075 -5.47695,-5.09115 -8.58237,-6.99148 -13.79577,-8.44185 -31.84978,-9.20345 -45.582566,-0.12002 -25.239069,16.69453 -24.539169,59.95789 1.657548,75.49008 9.162097,5.43248 19.665568,5.56796 29.835868,3.63142 v -0.40684 c -7.51657,0 -15.14585,0.0321 -22.376902,-2.30716 -3.789569,-1.2258 -7.478027,-3.18024 -7.873353,-7.4569 10.924485,5.70831 18.996745,8.88164 31.493415,7.32305 v 0.40683 l -2.07194,0.40684 v 0.40684 c 1.94928,0.15419 8.468,-0.88121 7.45897,-3.66153 7.19749,-3.3625 9.02037,-12.75228 16.16109,-16.34627 3.6002,-1.81205 8.09174,-1.14768 12.01722,-1.14768 6.32852,0 12.03629,-0.37145 18.23303,-1.62735 v -0.40684 c -9.22757,0 -20.63688,-2.37144 -29.42147,1.00245 -6.83035,2.62328 -10.61246,8.96097 -16.57548,12.78889 -9.01251,5.78562 -28.770894,5.10458 -35.637287,-4.02727 10.237017,6.61923 24.166637,10.24861 35.222897,2.94997 3.77838,-2.49431 7.41587,-5.99636 7.45896,-10.67985 -3.01425,1.37795 -5.35636,4.10131 -8.28774,5.74737 -7.23726,4.06429 -15.41519,4.48537 -23.205668,1.69976 -21.407646,-7.65462 -23.542983,-37.17994 -5.387031,-49.33946 8.402529,-5.62777 20.981659,-6.67862 29.421479,-0.51587 4.816,3.51669 7.84517,9.05007 13.26038,11.84056 3.33706,1.71929 7.12995,1.27543 10.77406,1.27543 h 19.47619 c 2.93635,0 7.55635,0.86168 10.28758,-0.24532 2.0251,-0.821 3.51897,-3.79293 4.78492,-5.45038 1.82538,-2.38935 4.73935,-5.16845 5.47281,-8.13673 1.43212,-5.79456 -5.44339,-14.59809 -8.5285,-19.1213 -12.71546,-18.64294 -35.73922,-36.205852 -59.67131,-36.208415 m -4.97265,5.695706 v 0.406836 c -8.24505,0 -16.474365,0.844307 -24.448829,3.020515 -4.938664,1.347807 -9.906335,3.862136 -14.917932,4.709372 2.499583,-2.480195 6.644696,-3.4053 9.945288,-4.474872 9.774561,-3.167382 19.297593,-3.744113 29.421473,-3.661851 m 2.07194,4.882034 v 0.406836 l -9.5309,-1.627344 9.5309,1.220508 m -26.935156,3.661526 v 0.406836 l -2.486322,0.406836 2.486322,-0.813672 m -3.315096,0.94927 0.137991,0.135639 c -0.204293,0.0669 -0.458312,-0.135639 -0.137991,-0.135639 m -1.243161,0.406839 0.137991,0.13564 c -0.204293,0.0669 -0.458312,-0.13564 -0.137991,-0.13564 m -0.828774,0.27124 v 0.40683 l -1.657548,0.40684 1.657548,-0.81367 m -2.486322,0.94927 0.137991,0.13564 c -0.204293,0.0669 -0.458312,-0.13564 -0.137991,-0.13564 m 82.463009,4.74643 c 7.212,7.08058 14.97429,14.55701 19.57855,23.5965 1.33018,2.61189 3.96237,6.27707 3.4162,9.35723 -0.4869,2.74574 -3.38057,5.61881 -5.09364,7.72989 -3.16177,3.89627 -4.41654,5.6957 -9.61337,5.6957 v -0.40683 c 4.14429,-0.17535 5.99287,-2.18227 8.43237,-5.28887 1.43958,-1.83361 3.85504,-4.13346 4.21141,-6.50938 0.35306,-2.34989 -1.37162,-5.23273 -2.28451,-7.32305 -2.87419,-6.58139 -6.50795,-12.83161 -11.24357,-18.30763 -2.05992,-2.38162 -6.66583,-5.55657 -7.40344,-8.54356 m 12.43161,31.32639 -3.72948,1.2205 3.72948,-1.2205 m -4.55825,2.44101 0.82877,3.66153 h -0.82877 v -3.66153 m -39.36677,6.50938 10.77406,3.09196 24.44884,2.60375 v 0.40683 c -9.15547,8.2e-4 -19.50769,2.85843 -28.17832,-1.13181 -2.02014,-0.92963 -6.87261,-2.48455 -7.04458,-4.97073 m 7.45897,39.46311 v 0.40683 c 12.24099,0 24.41278,-0.14605 36.46605,-2.44101 l -11.18844,-0.0366 -25.27761,2.0708 m -1.65755,1.62734 1.24316,-1.22051 -1.24316,1.22051 m -14.91793,13.4256 v 0.40683 l -1.65755,0.40684 1.65755,-0.81367 m -2.07194,0.81367 v 0.40684 l -1.65754,0.40683 1.65754,-0.81367 m -2.07193,0.81367 v 0.40684 h -1.24316 z"
       id="path350" /></g></svg>
