<?xml version="1.0" encoding="UTF-8" standalone="no"?>
<!-- Created with Inkscape (http://www.inkscape.org/) -->

<svg
   width="179.9222mm"
   height="153.46635mm"
   viewBox="0 0 179.9222 153.46635"
   version="1.1"
   id="svg5"
   xmlSpace="preserve"
   xmlns="http://www.w3.org/2000/svg"
   xmlnsSvg="http://www.w3.org/2000/svg"><defs
     id="defs2" /><g
     id="layer1"
     transform="translate(-12.613787,-79.525418)"><path
       style="fill:#b3b3b3;stroke-width:0.168464"
       d="M 139.56225,232.90315 C 126.0652,231.7901 110.3724,224.95922 94.892121,213.4588 c -2.37281,-1.76277 -2.98918,-2.14672 -3.34932,-2.08631 -0.24274,0.0407 -2.05344,0.44845 -4.023752,0.90607 -20.789221,4.82856 -40.172095,5.0911 -53.796693,0.72865 -2.446464,-0.78333 -6.490781,-2.56292 -8.41457,-3.70263 -6.472923,-3.8347 -10.527383,-8.95332 -12.046,-15.20767 -2.107369,-8.67916 0.953576,-19.17948 8.769937,-30.08461 4.41548,-6.16031 9.717991,-11.82645 16.794233,-17.94591 1.620788,-1.40162 1.642194,-1.42995 1.459034,-1.93194 -0.102205,-0.28018 -0.703206,-1.88594 -1.335513,-3.56834 -4.284332,-11.39953 -6.200361,-22.03112 -5.715875,-31.71599 0.717395,-14.340156 7.813501,-24.554829 19.438843,-27.981702 13.090816,-3.858871 30.914191,0.670398 49.799055,12.654906 5.46034,3.46519 9.24596,6.27806 16.62289,12.351466 1.1594,0.95454 0.82998,0.93421 4.08998,0.25253 4.08405,-0.85396 10.95814,-1.80901 16.48217,-2.2899 6.01209,-0.52338 15.10404,-0.36501 20.62474,0.35927 13.72494,1.80057 23.7157,6.85041 28.65841,14.48537 7.58928,11.72311 3.01664,28.12393 -12.6099,45.22831 -2.03804,2.23081 -6.95404,7.08249 -8.53247,8.42086 -0.44957,0.38118 -0.8174,0.75034 -0.8174,0.82034 0,0.07 0.38749,1.27951 0.86112,2.6878 4.09311,12.1709 5.40809,24.02992 3.70254,33.39106 -0.68958,3.78492 -1.60348,6.49643 -3.23528,9.59903 -4.05991,7.7193 -10.67046,12.33653 -19.66149,13.73283 -2.49304,0.38718 -6.64575,0.54282 -9.09456,0.34086 z m 6.94208,-1.62551 c 9.2712,-0.92121 16.41451,-5.53959 20.34809,-13.15569 2.52489,-4.88864 3.66464,-10.29431 3.6738,-17.42424 0.009,-6.58872 -0.85236,-12.45374 -2.90644,-19.80238 -0.72923,-2.60887 -1.94046,-6.40244 -2.08687,-6.53618 -0.0347,-0.0317 -0.73245,0.49077 -1.5506,1.16099 -18.42031,15.08948 -43.42765,27.78417 -68.479699,34.76296 -0.82443,0.22966 -1.45241,0.48634 -1.39552,0.5704 0.0569,0.0841 1.06974,0.8619 2.25078,1.72852 18.135679,13.3076 36.282689,20.07317 50.146459,18.69562 z m -79.11762,-17.2047 c 4.668631,-0.47603 8.132165,-0.95616 12.432826,-1.72344 2.870048,-0.51204 10.178615,-2.12929 10.357845,-2.29197 0.0735,-0.0668 -0.60077,-0.72717 -1.49837,-1.46766 -9.101397,-7.50849 -17.518339,-16.0998 -25.239701,-25.76259 -4.488165,-5.61667 -9.40742,-12.66161 -12.920394,-18.50352 -3.068638,-5.10301 -6.922701,-12.46906 -8.702716,-16.63305 -0.331079,-0.77446 -0.671171,-1.40837 -0.755784,-1.4087 -0.2985,-0.001 -8.001837,7.19203 -9.999387,9.33713 -6.472612,6.95073 -10.886252,13.2741 -13.637401,19.53819 -2.167529,4.93528 -3.083625,8.88258 -3.087782,13.30476 -0.0033,4.05075 0.696555,6.95482 2.465452,10.22318 4.815842,8.89814 16.301987,14.39459 32.786247,15.68914 3.294763,0.25874 14.099695,0.0758 17.799165,-0.30147 z m 27.397081,-5.17489 c 14.239059,-3.94152 28.709969,-9.84508 42.326689,-17.26764 6.28033,-3.42345 13.874,-8.26232 19.72027,-12.56625 3.1398,-2.31147 7.93458,-6.17989 8.00853,-6.46124 0.029,-0.11067 -0.31601,-1.13368 -0.76687,-2.27342 -6.18691,-15.64035 -16.25025,-31.75223 -28.79639,-46.10437 -4.09328,-4.6825 -8.29608,-8.99456 -13.24836,-13.59277 l -2.41531,-2.24263 -2.26843,0.53099 c -23.148089,5.4185 -47.117812,16.1332 -66.258,29.61794 -2.109964,1.48652 -6.367558,4.69884 -7.724665,5.82817 l -0.849741,0.70714 1.140603,2.57591 c 1.672113,3.77625 3.095331,6.60875 5.500725,10.94766 7.438691,13.41806 17.225089,26.38711 28.547418,37.8314 5.106516,5.16149 14.054211,12.96248 14.867931,12.96248 0.23828,0 1.23531,-0.222 2.2156,-0.49337 z m 79.019969,-44.61717 c 8.3582,-8.7585 14.05559,-17.9511 16.10791,-25.98975 1.01076,-3.95907 1.22285,-8.51798 0.54201,-11.65107 -0.98361,-4.52631 -2.84511,-7.81544 -6.27649,-11.09006 -2.47232,-2.35938 -4.842,-3.92952 -8.37765,-5.55101 -5.16004,-2.36645 -10.39749,-3.6945 -17.97951,-4.55901 -2.0572,-0.23457 -3.85302,-0.29124 -9.25137,-0.29192 -6.99895,-0.001 -8.78356,0.0988 -14.71936,0.82195 -4.70451,0.57316 -12.1633,1.86886 -12.1633,2.11292 0,0.0506 1.36857,1.36675 3.04127,2.92496 17.85687,16.63452 32.51736,37.67383 40.94712,58.76333 l 0.66951,1.67501 2.75446,-2.56047 c 1.51495,-1.40826 3.63237,-3.48046 4.7054,-4.60488 z M 42.271178,143.22366 c 0.197126,-0.29132 6.127887,-4.74197 8.726604,-6.54875 18.42696,-12.81153 41.788599,-23.325 63.637018,-28.63862 1.6967,-0.41265 3.15102,-0.80649 3.23184,-0.8752 0.22055,-0.18751 -5.49694,-4.82105 -9.75419,-7.904916 C 97.702561,91.715464 86.340335,85.918618 76.646498,83.202683 71.277365,81.69841 67.69073,81.178188 62.632258,81.169994 c -5.324061,-0.0085 -8.326975,0.538913 -12.261029,2.235639 -5.673652,2.446978 -9.63431,6.353792 -12.390281,12.221861 -3.026237,6.443506 -3.909466,15.457716 -2.478655,25.297246 0.973396,6.69403 3.346033,15.18833 6.172028,22.09654 0.156278,0.38203 0.415748,0.47001 0.596857,0.20238 z"
       id="path376" /></g></svg>
