<?xml version="1.0" encoding="UTF-8" standalone="no"?>
<!-- Created with Inkscape (http://www.inkscape.org/) -->

<svg
   version="1.1"
   id="svg273"
   width="400"
   height="400"
   viewBox="0 0 307.69231 307.69231"
   xmlSpace="preserve"
   xmlns="http://www.w3.org/2000/svg"
   xmlnsSvg="http://www.w3.org/2000/svg"><defs
     id="defs277" /><g
     id="g279"><path
       style="fill:#000000;stroke-width:0.312607"
       id="path287"
       d="" /><path
       style="fill:#000000;stroke-width:0.312607"
       id="path285"
       d="" /><path
       style="fill:#000000;stroke-width:0.32"
       id="path283"
       d="" /><g
       id="g7681"
       transform="translate(-14.29667,-776.56425)"><path
         style="fill:#eb5e27;fill-opacity:1;stroke-width:0.32"
         d="m 268.75266,1063.5935 c -8.1087,-3.9998 -23.8828,-10.0318 -32.2319,-12.3253 -3.1743,-0.872 -5.1069,-1.0295 -9.76005,-0.7953 -5.67101,0.2854 -9.41949,-4.9131 -6.93542,-9.6183 3.60355,-6.8257 18.76037,-4.4631 46.72317,7.283 12.1183,5.0904 15.0329,8.0831 12.7256,13.0667 -1.9304,4.1693 -5.3421,4.944 -10.5214,2.3892 z m 7.616,0.2878 c 3.5889,-2.017 3.9921,-7.0244 0.7919,-9.8343 -3.0662,-2.6921 -25.0544,-11.6406 -35.9221,-14.6191 -14.37634,-3.9401 -23.9357,-1.2301 -21.5166,6.0998 1.16029,3.5158 3.64675,4.7438 9.0399,4.4645 6.3855,-0.3308 25.4243,5.8561 39.119,12.7121 4.8715,2.4389 5.9714,2.5914 8.4879,1.177 z m -6.3857,-0.6395 c -2.8313,-1.6235 -11.1588,-5.1172 -19.5422,-8.1985 -14.8681,-5.4649 -16.4778,-5.8411 -23.52712,-5.4978 -6.8472,0.3335 -9.77856,-7.6296 -3.91056,-10.6233 2.23139,-1.1383 10.75918,-1.0486 15.43768,0.1624 11.7774,3.0488 35.0061,12.3028 38.4322,15.3109 5.4376,4.7743 -0.5608,12.4756 -6.89,8.8463 z m -45.85934,-67.60031 c -5.24957,-1.9286 -6.34454,-8.6217 -1.89139,-11.56122 1.74605,-1.15257 12.75193,-5.32128 26.60843,-10.07856 23.1562,-7.95001 27.2223,-9.20528 40.9466,-12.64089 21.4039,-5.35799 22.0539,-5.47767 24.1094,-4.43914 4.1708,2.10733 5.0833,7.16624 1.8861,10.4568 -1.4611,1.50378 -1.9328,1.64714 -19.742,5.99926 -7.9561,1.94426 -16.639,4.30253 -21.28,5.77965 -14.6921,4.67607 -39.6536,13.4465 -45.002,15.8118 -2.25184,0.9959 -4.14083,1.2213 -5.63514,0.6723 z m 6.52314,-1.5142 c 6.8278,-2.7135 13.7712,-5.2094 27.5422,-9.90039 19.37,-6.59834 23.2467,-7.75892 37.9155,-11.3512 18.4453,-4.51712 17.4598,-4.2368 18.8124,-5.35168 4.273,-3.52218 1.9704,-10.78272 -3.4259,-10.80244 -1.74,-0.006 -30.6083,7.19204 -37.6902,9.39818 -16.7514,5.2183 -48.27567,16.4281 -51.12287,18.17891 -7.68384,4.72492 -0.73987,13.28952 7.96887,9.82862 z m -6.9632,0.3848 c -3.97683,-1.806 -4.45693,-7.4092 -0.83651,-9.76331 5.07312,-3.29868 48.17291,-17.76809 67.11371,-22.53136 24.1671,-6.0776 25.8636,-6.10601 26.6228,-0.44576 0.5912,4.40752 -1.249,6.04378 -8.7028,7.73853 -5.9142,1.34464 -22.5988,5.52391 -26.24,6.57267 -7.8458,2.25988 -36.7353,12.10453 -46.1104,15.71303 -3.5033,1.3484 -6.8736,2.6426 -7.48965,2.876 -1.55098,0.5875 -2.81334,0.5412 -4.35715,-0.1598 z m -41.62384,-51.07844 c -5.07376,-2.52835 -4.93213,-5.93744 0.58809,-14.15591 10.65831,-15.86803 14.61616,-20.88697 27.94212,-35.4335 3.70832,-4.048 11.00547,-12.04 16.21584,-17.76 28.92989,-31.75949 35.01259,-36.28394 39.73599,-29.55613 2.8397,4.04474 2.283,4.99632 -10.3964,17.77482 -10.0768,10.15552 -15.2083,15.57971 -24.9062,26.32691 -2.3752,2.6321 -7.82658,8.6081 -12.11429,13.28 -8.26048,9.00067 -12.14746,13.64832 -16.91638,20.22691 -4.06935,5.61354 -9.40836,13.52925 -10.50234,15.57101 -2.08883,3.8985 -6.1513,5.46758 -9.64643,3.72589 z m 6.63929,-0.95757 c 0.75904,-0.52352 1.74941,-1.58326 2.20087,-2.35501 6.86531,-11.7359 15.63837,-23.06838 30.31456,-39.15837 5.97917,-6.55516 13.75982,-15.08646 17.29032,-18.95846 3.5304,-3.872 11.1846,-11.82794 17.0092,-17.67984 5.8246,-5.8519 10.7897,-11.0359 11.0335,-11.52 2.5771,-5.11552 -2.73,-10.4936 -7.9957,-8.10266 -1.7595,0.79892 -19.6618,18.76135 -29.8288,29.92906 -4.15924,4.56858 -11.66727,12.78973 -16.68449,18.26918 -12.65299,13.81866 -15.2953,17.008 -22.37549,27.008 -6.32553,8.93412 -10.51827,15.31639 -10.74752,16.3601 -1.19385,5.43571 5.10675,9.43366 9.78355,6.208 z m -6.34144,0.13293 c -4.26307,-2.11021 -4.11456,-5.29239 0.56957,-12.20442 11.39427,-16.81376 15.36314,-21.8775 27.52131,-35.1136 3.96426,-4.31571 10.79447,-11.80675 15.17824,-16.64675 15.57597,-17.19699 31.74447,-33.28733 34.08137,-33.91658 4.4841,-1.20745 8.6312,3.69575 6.5423,7.73524 -0.2807,0.54278 -5.3364,5.82761 -11.2351,11.74409 -5.8985,5.91648 -14.7049,15.14621 -19.5696,20.5105 -4.8647,5.36429 -12.21641,13.42829 -16.33705,17.92 -8.7486,9.53641 -11.38067,12.62035 -15.66489,18.35424 -4.02813,5.3911 -10.42986,14.6376 -11.52032,16.63961 -2.76131,5.06964 -5.98797,6.74864 -9.56583,4.97767 z M 41.000712,916.28952 c -2.49674,-1.15402 -4.33059,-4.46522 -7.20278,-13.00528 -0.95172,-2.82986 -4.96192,-12.54973 -8.7136,-21.12 -0.88602,-2.024 -2.73095,-6.24598 -4.09984,-9.38218 -1.3689,-3.13622 -3.39402,-7.31222 -4.50029,-9.28 -3.31005,-5.88784 -2.87536,-9.58476 1.38377,-11.76896 4.82285,-2.47331 8.80573,1.14336 13.69732,12.43792 0.74156,1.71226 2.61488,5.99322 4.16291,9.51322 1.54803,3.52 3.4663,7.984 4.26278,9.92 0.79648,1.936 2.25968,5.392 3.25155,7.68 0.99188,2.288 2.35415,5.816 3.02724,7.84 0.67308,2.024 1.81491,5.01846 2.53737,6.65437 3.11885,7.06211 -1.58,13.38886 -7.80643,10.51091 z m 5.13325,-0.48678 c 3.76147,-1.70861 4.47539,-4.90884 2.22624,-9.97936 -0.6585,-1.48452 -1.73459,-4.28314 -2.39133,-6.21914 -1.30531,-3.84806 -6.07683,-15.3728 -10.73152,-25.92 -1.6311,-3.696 -3.5287,-8.016 -4.2169,-9.6 -1.4894,-3.42822 -4.58275,-9.01418 -5.77923,-10.4361 -3.60678,-4.28643 -10.60294,-1.61398 -10.63347,4.06186 -0.007,1.31766 0.14086,1.66 2.96394,6.85677 2.73212,5.02941 15.11088,33.86499 17.03302,39.67747 3.54371,10.71587 6.6121,13.79206 11.52925,11.5585 z m -4.00157,-0.0942 c -2.67107,-0.76637 -4.60998,-3.90813 -7.0704,-11.4568 -1.1447,-3.51187 -6.97277,-17.62947 -11.09978,-26.88749 -1.05916,-2.376 -2.519,-5.688 -3.24406,-7.36 -0.72506,-1.672 -2.22896,-4.696 -3.34205,-6.72 -3.19789,-5.81507 -2.96544,-8.80147 0.83824,-10.76842 4.25088,-2.1982 7.84691,1.22503 12.48851,11.88842 0.68948,1.584 2.51613,5.76 4.0592,9.28 5.37783,12.26778 9.83991,23.06438 10.9768,26.56 0.62967,1.936 1.65719,4.64397 2.28336,6.01773 1.75751,3.85577 1.51965,6.39686 -0.77993,8.33187 -1.55651,1.3097 -3.18899,1.66582 -5.10989,1.11469 z m 65.761628,-1.29437 c -3.56598,-2.07018 -4.11264,-4.9792 -2.00128,-10.64992 3.32925,-8.94189 9.59725,-31.44477 14.92202,-53.57181 2.65555,-11.0352 4.67049,-18.52797 7.70944,-28.66819 2.97622,-9.93091 5.20675,-17.99501 6.41715,-23.2 4.68605,-20.15136 5.46646,-21.76 10.55683,-21.76 5.83498,0 7.33447,4.05107 4.98672,13.47238 -0.80694,3.23818 -2.18317,8.83962 -3.0583,12.44762 -0.87511,3.608 -2.53562,9.8 -3.68999,13.76 -5.65932,19.41405 -6.99356,24.23114 -9.13078,32.96518 -8.04733,32.88663 -14.83558,56.65885 -17.88733,62.64071 -1.50285,2.94589 -5.94397,4.23629 -8.82448,2.56403 z m 6.52279,-0.67613 c 3.23097,-2.13814 8.66374,-19.7463 19.02252,-61.65379 3.19674,-12.93267 4.06944,-16.12054 9.46132,-34.56 2.27065,-7.76528 8.66172,-33.15418 8.65827,-34.39546 -0.0141,-5.08627 -6.23997,-7.97164 -10.02669,-4.64684 -1.54966,1.3606 -1.89325,2.36684 -4.53523,13.2823 -2.91011,12.02323 -4.60618,18.34656 -7.68189,28.64 -3.27152,10.94874 -5.2447,18.27002 -8.13622,30.18832 -5.86976,24.19408 -11.17021,43.04115 -15.53556,55.24022 -2.24108,6.26282 3.47399,11.41229 8.77348,7.90525 z m -5.20644,0.29392 c -4.02182,-1.48128 -4.57302,-4.22086 -2.17299,-10.80029 3.04634,-8.35123 8.08608,-26.37696 13.67389,-48.90742 4.45843,-17.97674 5.95846,-23.59914 8.92163,-33.44 3.00765,-9.98858 4.64535,-16.06074 7.69949,-28.54803 3.32736,-13.60426 3.74867,-14.42023 7.61091,-14.74051 6.6657,-0.55277 7.11623,2.36105 2.96723,19.19123 -2.98249,12.0983 -3.96944,15.69881 -8.97372,32.73731 -1.34397,4.576 -4.44906,16.384 -6.90013,26.24 -7.32179,29.44147 -13.33031,50.29485 -15.9984,55.52474 -1.23575,2.4223 -4.32695,3.66409 -6.82791,2.74297 z"
         id="path405" /></g></g></svg>
